<svg xmlns="http://www.w3.org/2000/svg" viewBox="0 0 800 450" width="800" height="450" role="img">
  <defs>
    <linearGradient id="ge7b686" x1="0" y1="0" x2="1" y2="1" gradientTransform="rotate(51 .5 .5)">
      <stop offset="0" stop-color="#0c5f6b"/><stop offset="1" stop-color="#13a3a8"/>
    </linearGradient>
  </defs>
  <rect width="800" height="450" fill="url(#ge7b686)"/>
  <circle cx="738" cy="54" r="150" fill="#ffffff" opacity="0.08"/>
  <circle cx="698" cy="420" r="110" fill="#ffffff" opacity="0.07"/>
  <g transform="translate(590,125) scale(1.9)"><path fill="none" stroke="#ffffff" stroke-width="6" stroke-linecap="round" stroke-linejoin="round" d="M50 26c-9-6-20-6-28-3v52c8-3 19-3 28 3 9-6 20-6 28-3V23c-8-3-19-3-28 3z"/><path fill="none" stroke="#ffffff" stroke-width="6" stroke-linecap="round" stroke-linejoin="round" d="M50 26v52"/></g>
  <text x="70" y="216" font-family="'Apple SD Gothic Neo','Noto Sans KR','Malgun Gothic','맑은 고딕',sans-serif" font-size="52" font-weight="800" fill="#ffffff">상해사망 vs</text><text x="70" y="278" font-family="'Apple SD Gothic Neo','Noto Sans KR','Malgun Gothic','맑은 고딕',sans-serif" font-size="52" font-weight="800" fill="#ffffff">질병사망</text>
  <text x="70" y="408" font-family="'Apple SD Gothic Neo','Noto Sans KR','Malgun Gothic','맑은 고딕',sans-serif" font-size="22" font-weight="800" fill="#ffffff" opacity="0.92"><tspan font-family="serif">保</tspan>  보험지식</text>
  <g transform="translate(70,420)">
    <rect x="0" y="-2" width="88" height="26" rx="13" fill="#ffffff" opacity="0.18"/>
    <text x="14" y="16" font-family="'Apple SD Gothic Neo','Noto Sans KR','Malgun Gothic','맑은 고딕',sans-serif" font-size="15" font-weight="700" fill="#ffffff">보험기초</text>
  </g>
</svg>
