<svg xmlns="http://www.w3.org/2000/svg" viewBox="0 0 800 450" width="800" height="450" role="img">
  <defs>
    <linearGradient id="gfaf45d" x1="0" y1="0" x2="1" y2="1" gradientTransform="rotate(30 .5 .5)">
      <stop offset="0" stop-color="#b23a63"/><stop offset="1" stop-color="#e77e9b"/>
    </linearGradient>
  </defs>
  <rect width="800" height="450" fill="url(#gfaf45d)"/>
  <circle cx="736" cy="43" r="150" fill="#ffffff" opacity="0.08"/>
  <circle cx="696" cy="420" r="110" fill="#ffffff" opacity="0.07"/>
  <g transform="translate(590,125) scale(1.9)"><path fill="none" stroke="#ffffff" stroke-width="6" stroke-linecap="round" stroke-linejoin="round" d="M50 20c-9 0-15 8-15 18 0 8 6 15 15 22 9-7 15-14 15-22 0-10-6-18-15-18z"/><path fill="none" stroke="#ffffff" stroke-width="6" stroke-linecap="round" stroke-linejoin="round" d="M43 58 32 82l10-5 6 9 8-30M57 58l11 24-10-5-6 9"/></g>
  <text x="70" y="216" font-family="'Apple SD Gothic Neo','Noto Sans KR','Malgun Gothic','맑은 고딕',sans-serif" font-size="52" font-weight="800" fill="#ffffff">재진단·전이암</text><text x="70" y="278" font-family="'Apple SD Gothic Neo','Noto Sans KR','Malgun Gothic','맑은 고딕',sans-serif" font-size="52" font-weight="800" fill="#ffffff">보장 공백</text>
  <text x="70" y="408" font-family="'Apple SD Gothic Neo','Noto Sans KR','Malgun Gothic','맑은 고딕',sans-serif" font-size="22" font-weight="800" fill="#ffffff" opacity="0.92"><tspan font-family="serif">保</tspan>  보험지식</text>
  <g transform="translate(70,420)">
    <rect x="0" y="-2" width="88" height="26" rx="13" fill="#ffffff" opacity="0.18"/>
    <text x="14" y="16" font-family="'Apple SD Gothic Neo','Noto Sans KR','Malgun Gothic','맑은 고딕',sans-serif" font-size="15" font-weight="700" fill="#ffffff">암·건강</text>
  </g>
</svg>
