<svg xmlns="http://www.w3.org/2000/svg" viewBox="0 0 64 64" role="img" aria-label="보험지식">
  <defs>
    <linearGradient id="shield" x1="12" y1="8" x2="52" y2="58" gradientUnits="userSpaceOnUse">
      <stop offset="0" stop-color="#0d6f73"/>
      <stop offset="1" stop-color="#064e52"/>
    </linearGradient>
    <linearGradient id="accent" x1="20" y1="18" x2="44" y2="46" gradientUnits="userSpaceOnUse">
      <stop offset="0" stop-color="#fff7e6"/>
      <stop offset="1" stop-color="#d8b46a"/>
    </linearGradient>
  </defs>
  <rect width="64" height="64" rx="14" fill="#f6f8fa"/>
  <path d="M32 7 51 14v15c0 14.4-7.6 23.8-19 29-11.4-5.2-19-14.6-19-29V14l19-7Z" fill="url(#shield)"/>
  <path d="M32 13.2 45.4 18v11.3c0 10.3-4.9 17.4-13.4 21.8-8.5-4.4-13.4-11.5-13.4-21.8V18L32 13.2Z" fill="none" stroke="rgba(255,255,255,.42)" stroke-width="2"/>
  <path d="M25.4 25.7h13.2c3.4 0 5.7 2.2 5.7 5.2 0 2.1-1.1 3.7-2.9 4.6 2.3.8 3.7 2.8 3.7 5.2 0 3.5-2.7 5.9-6.6 5.9H25.4V25.7Zm5 8.1h7.1c1.2 0 2-.8 2-1.9s-.8-1.9-2-1.9h-7.1v3.8Zm0 8.4h7.8c1.4 0 2.2-.8 2.2-2.1 0-1.2-.9-2-2.2-2h-7.8v4.1Z" fill="url(#accent)"/>
</svg>
